<svg xmlns="http://www.w3.org/2000/svg" xmlns:xlink="http://www.w3.org/1999/xlink" width="132" height="132" viewBox="0 0 132 132"><rect x="14" y="14" fill="#ECEFF1" width="104" height="104"/><rect x="18" y="18" fill="#CFD8DC" width="96" height="46"/><rect x="18" y="68" fill="#CFD8DC" width="46" height="46"/><rect x="68" y="68" fill="#CFD8DC" width="46" height="46"/><path fill-rule="evenodd" clip-rule="evenodd" fill="#B0BEC5" d="M18,91c0,0,8.54-2.76,16,1c12.33,6.22,30-3,30-3l0,25H18L18,91z"/><path fill-rule="evenodd" clip-rule="evenodd" fill="#CFD8DC" d="M18,102.21c0,0,9.78-1.39,16.65-3.42 c8.16-2.41,23.11,1.44,24.12,1.71c1.02,0.27,5.23,0.54,5.23,0.54V114H18V102.21z"/><defs><rect id="a" x="68" y="68" width="46" height="46"/></defs><clipPath id="b"><use xlink:href="#a" overflow="visible"/></clipPath><g clip-path="url(#b)"><path fill-rule="evenodd" clip-rule="evenodd" fill="#B0BEC5" d="M114,91c-22.45,0-32.25,8-46,8v15h46V91z"/></g><g fill="#90A4AE"><path d="M107,89.32c0-6.42-5-17.32-5-17.32s-5,10.9-5,17.32c0,7.85,1.83,10.12,4,10.58v4.1h2v-4.14 C104.58,99.4,107,97.44,107,89.32z"/><path d="M83,95.92c0,7.41,1.83,9.55,4,9.98V110h2v-4.14c1.58-0.44,4-2.28,4-9.94C93,89.86,88,80,88,80 S83,89.86,83,95.92z"/></g><g><path fill="#FFF" d="M59.43,29.94c0.92,0,1.79,0.19,2.58,0.53C62.9,29.56,64.14,29,65.51,29c2.4,0,4.4,1.72,4.83,4 c0.21-0.03,0.42-0.04,0.63-0.04c2.77,0,5.02,2.25,5.02,5.02c0,2.77-2.25,5.02-5.02,5.02c-0.05,0-0.1-0.01-0.15-0.01V43h-11.4 c-3.61,0-6.53-2.92-6.53-6.53S55.82,29.94,59.43,29.94z"/><path fill="#B0BEC5" d="M87,43c-4.82,0-9.11,2.51-13.09,5.24C68.19,52.14,63.1,58.11,57.97,64H86h28v-3.41 C105.91,51.81,97.4,43,87,43z"/></g><g><path fill="#ECEFF1" d="M57.97,64c5.13-5.89,10.22-11.86,15.94-15.76C65.92,38,56.33,32,46,32s-21.96,5.83-28,12.84V64H57.97z"/></g></svg>